<svg enable-background="new 0 0 520 520" height="512" viewBox="0 0 520 520" width="512" xmlns="http://www.w3.org/2000/svg"><g id="_x32_10_x2C__App_x2C__Book_x2C__Book_x2C__Interface_x2C__Tax_x2C_"><g><g><path d="m123.5 379c-17.624 0-32.227 13.035-34.64 30h-.01c-3.007 21.313 13.493 40 34.65 40h265v-69-1c-31.318 0-232.205 0-265 0z" fill="#33383f"/><path d="m123.5 379c-17.624 0-32.227 13.035-34.64 30h-.01c-3.007 21.313 13.493 40 34.65 40h265v-69-1c-31.318 0-232.205 0-265 0z" fill="#33383f"/><path d="m318.5 449v30l-30-30-30 30v-30-70h60z" fill="#fd6814"/><path d="m148.5 121v260h110 60 70v-170-40-50z" fill="#757d8c"/><path d="m148.5 71h240v50h-240z" fill="#33383f"/><path d="m148.5 121v260h-25c-9.67 0-18.41 3.92-24.75 10.25-5.22 5.22-8.8 12.09-9.89 19.75h-.01-.35v-283c0-31.48 25.521-57 57-57h3z" fill="#545b66"/><path d="m145.5 71c-31.479 0-57 25.52-57 57v283c.101 0 .46 0 .36 0 2.414-16.969 17.02-30 34.64-30h265c0-45.945 0-268.23 0-310-9.599 0-232.525 0-243 0z" fill="#757d8c"/><path d="m460 141c15.19 0 27.5 12.31 27.5 27.5s-12.31 27.5-27.5 27.5c-15.18 0-27.5-12.31-27.5-27.5s12.32-27.5 27.5-27.5z" fill="#faa71a"/><path d="m47.5 321c8.29 0 15 6.72 15 15s-6.71 15-15 15c-8.28 0-15-6.72-15-15s6.72-15 15-15z" fill="#faa71a"/><path d="m177.5 191h180v90h-180z" fill="#07cc66"/><path d="m148.5 71h240v50h-240z" fill="#33383f"/><path d="m148.5 121v260h-25c-9.67 0-18.41 3.92-24.75 10.25-5.22 5.22-8.8 12.09-9.89 19.75h-.01-.35v-283c0-31.48 25.521-57 57-57h3z" fill="#545b66"/><g fill="#4a78ff"><path d="m450 81c4.15 0 7.5 3.36 7.5 7.5s-3.35 7.5-7.5 7.5c-4.14 0-7.5-3.36-7.5-7.5s3.36-7.5 7.5-7.5z"/><path d="m435 416c4.15 0 7.5 3.36 7.5 7.5s-3.35 7.5-7.5 7.5c-4.14 0-7.5-3.36-7.5-7.5s3.36-7.5 7.5-7.5z"/><path d="m430 251c4.15 0 7.5 3.36 7.5 7.5 0 4.141-3.35 7.5-7.5 7.5-4.14 0-7.5-3.359-7.5-7.5 0-4.14 3.36-7.5 7.5-7.5z"/></g><path d="m320.48 236.33 15.581 22.92h-11.591l-9.63-15.39-9.62 15.39h-11.659l15.579-22.92-16.11-23.58h11.66l10.15 16.04 10.15-16.04h11.6z" fill="#fff"/><path d="m270.04 241.44-5.43-16.44-5.57 16.44zm-27.24 17.81 16.96-46.5h9.69l16.97 46.5h-11.01l-3.6-10.41h-14.47l-3.54 10.41z" fill="#fff"/><path d="m225.37 222.18v37.07h-10.74v-37.07h-14.21v-9.43h39.101v9.43z" fill="#fff"/><path d="m75 41c4.15 0 7.5 3.36 7.5 7.5s-3.35 7.5-7.5 7.5c-4.14 0-7.5-3.36-7.5-7.5s3.36-7.5 7.5-7.5z" fill="#4a78ff"/><path d="m70 456c4.15 0 7.5 3.36 7.5 7.5s-3.35 7.5-7.5 7.5c-4.14 0-7.5-3.36-7.5-7.5s3.36-7.5 7.5-7.5z" fill="#4a78ff"/><path d="m65 216c4.15 0 7.5 3.36 7.5 7.5s-3.35 7.5-7.5 7.5c-4.14 0-7.5-3.36-7.5-7.5s3.36-7.5 7.5-7.5z" fill="#4a78ff"/><path d="m357.5 305h-180c-2.761 0-5-2.238-5-5s2.239-5 5-5h180c2.762 0 5 2.238 5 5s-2.238 5-5 5z" fill="#bde1ff"/><path d="m357.5 325h-180c-2.761 0-5-2.238-5-5s2.239-5 5-5h180c2.762 0 5 2.238 5 5s-2.238 5-5 5z" fill="#bde1ff"/><path d="m292.5 345h-115c-2.761 0-5-2.238-5-5s2.239-5 5-5h115c2.762 0 5 2.238 5 5s-2.238 5-5 5z" fill="#bde1ff"/></g></g></g></svg>