<svg height="464pt" viewBox="0 0 464 464" width="464pt" xmlns="http://www.w3.org/2000/svg"><path d="m16 32h240v432h-240zm0 0" fill="#5aaae7"/><path d="m256 96h176v368h-176zm0 0" fill="#3d9ae2"/><path d="m144 368h-56v96h96v-96zm0 0" fill="#e6e7e8"/><path d="m456 240h-128c-4.417969 0-8 3.582031-8 8v80c0 4.417969 3.582031 8 8 8h24v40l40-40h64c4.417969 0 8-3.582031 8-8v-80c0-4.417969-3.582031-8-8-8zm0 0" fill="#ffd422"/><g fill="#e6e7e8"><path d="m360 208h32v32h-32zm0 0"/><path d="m296 208h32v32h-32zm0 0"/><path d="m360 144h32v32h-32zm0 0"/><path d="m296 144h32v32h-32zm0 0"/><path d="m184 272h24c-5.222656 6.90625-8.035156 15.339844-8 24v8h-16zm0 0"/><path d="m120 272h32v32h-32zm0 0"/><path d="m56 272h32v32h-32zm0 0"/><path d="m184 208h32v32h-32zm0 0"/><path d="m120 208h32v32h-32zm0 0"/><path d="m56 208h32v32h-32zm0 0"/><path d="m184 144h32v32h-32zm0 0"/><path d="m120 144h32v32h-32zm0 0"/><path d="m56 144h32v32h-32zm0 0"/><path d="m184 80h32v32h-32zm0 0"/><path d="m120 80h32v32h-32zm0 0"/><path d="m56 80h32v32h-32zm0 0"/></g><path d="m267.601562 371.28125-11.601562 8.71875-16 12-27.601562-20.71875 11.601562-3.28125v-20.320312c9.890625 5.761718 22.109375 5.761718 32 0v20.320312zm0 0" fill="#ffdaaa"/><path d="m272 0v32h-272v-32zm0 0" fill="#1a6fb0"/><path d="m259.601562 295.121094-3.601562-7.121094-11.921875 7.921875c-7.875 5.28125-17.152344 8.097656-26.636719 8.078125h-9.441406v16c-.019531 11.4375 6.082031 22.015625 15.988281 27.730469 9.910157 5.714843 22.121094 5.695312 32.011719-.050781 2.414062-1.398438 4.644531-3.09375 6.640625-5.039063 5.980469-6.019531 9.34375-14.15625 9.359375-22.640625v-16.160156c-5.359375-.578125-10.042969-3.875-12.398438-8.71875zm0 0" fill="#ffdaaa"/><path d="m256 347.679688v8c-9.890625 5.761718-22.109375 5.761718-32 0v-8c9.890625 5.761718 22.109375 5.761718 32 0zm0 0" fill="#f2cd9d"/><path d="m256 259.28125c-5.058594-2.160156-10.5-3.277344-16-3.28125-12.585938.011719-24.4375 5.9375-32 16-5.222656 6.90625-8.035156 15.339844-8 24v8h17.441406c9.484375.019531 18.761719-2.796875 26.636719-8.078125l11.921875-7.921875 3.601562 7.121094c2.355469 4.84375 7.039063 8.140625 12.398438 8.71875.632812.132812 1.277344.1875 1.921875.160156h6.078125v-8c-.035156-15.910156-9.445312-30.300781-24-36.71875zm0 0" fill="#3e3d42"/><path d="m288.800781 377.359375-21.199219-6.078125-11.601562 8.71875-16 12-27.601562-20.71875-21.199219 6.078125c-13.757813 3.910156-23.238281 16.496094-23.199219 30.800781v55.839844h144v-55.839844c.015625-14.296875-9.453125-26.867187-23.199219-30.800781zm0 0" fill="#00ccb3"/><path d="m16 32h240v16h-240zm0 0" fill="#3d9ae2"/><path d="m192 408h16v56h-16zm0 0" fill="#00b39d"/><path d="m272 408h16v56h-16zm0 0" fill="#00b39d"/><path d="m352 264h80v16h-80zm0 0" fill="#ddb200"/><path d="m352 296h80v16h-80zm0 0" fill="#ddb200"/></svg>