<svg height="488pt" viewBox="0 -28 488 488" width="488pt" xmlns="http://www.w3.org/2000/svg"><path d="m389.972656 395.585938h-389.972656v-395.585938h16v379.585938h373.972656zm0 0" fill="#454546"/><g fill="#e85aa0"><path d="m40.945312 278.003906 19.363282 8.351563 19.359375-8.351563v78.515625h-38.722657zm0 0"/><path d="m234.164062 178.335938 20.074219 8.347656 18.644531-8.347656v178.089843h-38.71875zm0 0"/><path d="m367.269531 357.761719v-232.121094l-19.363281 8.351563-19.359375-8.351563v232.121094zm0 0"/><path d="m136.511719 229.503906 21.25 8.351563 19.554687-8.351563v126.824219h-40.804687zm0 0"/></g><path d="m73.984375 187.753906 59.957031-60.605468 11.375 11.253906-59.957031 60.605468zm0 0" fill="#fdbe4a"/><path d="m177.316406 118.117188h55.277344v16h-55.277344zm0 0" fill="#fdbe4a"/><path d="m265.996094 107.519531 60.671875-51.15625 10.308593 12.226563-60.667968 51.15625zm0 0" fill="#fdbe4a"/><path d="m86.992188 200.683594c0-13.378906-10.765626-24.222656-24.042969-24.222656-13.28125 0-24.046875 10.84375-24.046875 24.222656s10.765625 24.222656 24.046875 24.222656c13.277343 0 24.042969-10.84375 24.042969-24.222656zm0 0" fill="#ffd169"/><path d="m181.804688 129.601562c0-13.378906-10.765626-24.226562-24.042969-24.226562-13.28125 0-24.046875 10.847656-24.046875 24.226562 0 13.378907 10.765625 24.222657 24.046875 24.222657 13.277343 0 24.042969-10.84375 24.042969-24.222657zm0 0" fill="#ffd169"/><path d="m278.285156 124.054688c0-13.378907-10.765625-24.222657-24.046875-24.222657-13.277343 0-24.042969 10.84375-24.042969 24.222657 0 13.378906 10.765626 24.226562 24.042969 24.226562 13.28125 0 24.046875-10.847656 24.046875-24.226562zm0 0" fill="#ffd169"/><path d="m371.390625 50.539062c0-13.378906-10.761719-24.222656-24.042969-24.222656-13.277344 0-24.042968 10.84375-24.042968 24.222656 0 13.378907 10.765624 24.226563 24.042968 24.226563 13.28125 0 24.042969-10.847656 24.042969-24.226563zm0 0" fill="#ffd169"/><path d="m488 337.019531c0-52.457031-42.207031-94.980469-94.273438-94.980469-52.0625 0-94.269531 42.523438-94.269531 94.980469s42.207031 94.980469 94.269531 94.980469c52.066407 0 94.273438-42.523438 94.273438-94.980469zm0 0" fill="#99cf6c"/><path d="m349.277344 381.777344c-24.460938-24.644532-24.460938-64.75 0-89.394532 16.269531-16.386718 40.128906-22.476562 62.25-15.917968l-4.554688 15.339844c-16.480468-4.902344-34.242187-.347657-46.339844 11.847656-18.292968 18.433594-18.292968 48.417968 0 66.851562zm0 0" fill="#78af42"/><path d="m393.628906 400.242188c-10.988281 0-22.042968-2.90625-31.992187-8.875l8.226562-13.722657c18.34375 11 41.761719 7.996094 56.957031-7.304687 18.292969-18.433594 18.292969-48.417969 0-66.855469-1.898437-1.789063-4.394531-4.046875-7.085937-5.851563l8.921875-13.28125c3.65625 2.457032 6.769531 5.261719 9.332031 7.679688 24.644531 24.828125 24.644531 64.933594.1875 89.578125-12.164062 12.261719-28.285156 18.632813-44.546875 18.632813zm0 0" fill="#78af42"/><path d="m362.957031 384.515625-22.980469-1.046875.734376-15.984375 6.246093.285156v-7.015625h16zm0 0" fill="#78af42"/><path d="m432.363281 306.046875h-16v-23.5l22.882813.785156-.542969 15.992188-6.339844-.21875zm0 0" fill="#78af42"/></svg>