<?xml version="1.0" encoding="iso-8859-1"?>
<!-- Generator: Adobe Illustrator 19.0.0, SVG Export Plug-In . SVG Version: 6.00 Build 0)  -->
<svg version="1.1" id="Capa_1" xmlns="http://www.w3.org/2000/svg" xmlns:xlink="http://www.w3.org/1999/xlink" x="0px" y="0px"
	 viewBox="0 0 512 512" style="enable-background:new 0 0 512 512;" xml:space="preserve">
<circle style="fill:#005ECE;" cx="256" cy="256" r="256"/>
<path style="fill:#00479B;" d="M512,256c0-3.82-0.1-7.617-0.266-11.396L400.696,133.565l-0.314,1.075
	c-14.461-14.419-34.411-23.336-56.446-23.336l0,0c-12.82,0-24.932,3.023-35.671,8.386c-1.396-0.253-2.832-0.392-4.301-0.392
	c-13.244,0-23.981,10.735-23.983,23.978c-0.081,0.108-0.161,0.216-0.242,0.324c-11.59,1.762-20.827,10.641-23.156,22.034
	l-33.976-33.976l0,0H77.913v111.304l0,0l77.913,77.913H66.783v22.261l0,0l0,0l22.261,22.261v33.391l105.854,105.854
	C214.479,509.438,234.939,512,256,512C397.384,512,512,397.384,512,256z"/>
<path style="fill:#FFFFFF;" d="M407.89,343.137H279.983v-7.994c0-35.32,28.633-63.953,63.953-63.953l0,0
	c35.32,0,63.953,28.633,63.953,63.953v7.994H407.89z"/>
<path style="fill:#E1E3FA;" d="M359.925,271.189h-15.989v71.948h63.953v-23.983C407.89,292.664,386.415,271.189,359.925,271.189z"/>
<polygon points="359.925,343.137 343.936,343.137 327.948,343.137 343.936,263.195 "/>
<polygon points="343.936,295.171 359.925,271.189 327.948,271.189 "/>
<path style="fill:#3E3D42;" d="M279.983,319.154v23.983h63.953l-23.77-71.31C297.378,275.546,279.983,295.314,279.983,319.154z"/>
<path style="fill:#2D2D30;" d="M367.706,271.826l-23.77,71.31h63.953v-23.983C407.89,295.314,390.495,275.546,367.706,271.826z"/>
<path style="fill:#1D1D1F;" d="M343.937,111.304L343.937,111.304c-12.82,0-24.932,3.023-35.671,8.387
	c-1.396-0.253-2.832-0.392-4.301-0.392c-13.244,0-23.981,10.735-23.983,23.978c-0.081,0.108-0.161,0.216-0.242,0.324
	C266.3,145.644,256,157.25,256,171.262c0,7.624,3.053,14.533,7.999,19.58c-0.001,0.136-0.006,0.27-0.006,0.406v31.977h159.884
	v-31.977C423.879,147.095,388.087,111.304,343.937,111.304z"/>
<path d="M343.937,111.304L343.937,111.304v111.919h79.942v-31.977C423.879,147.095,388.087,111.304,343.937,111.304z"/>
<path style="fill:#FFC477;" d="M295.972,239.212h-15.989c-8.794,0-15.989-7.195-15.989-15.989l0,0
	c0-8.794,7.195-15.989,15.989-15.989h15.989V239.212z"/>
<path style="fill:#FFB655;" d="M391.901,239.212h15.989c8.794,0,15.989-7.195,15.989-15.989l0,0c0-8.794-7.195-15.989-15.989-15.989
	h-15.989V239.212z"/>
<path style="fill:#FFDAAA;" d="M370.459,182.292c-2.54-1.904-4.935-3.912-7.194-5.999c-22.803,14.808-49.632,22.949-77.418,22.949
	h-13.416c-0.29,2.626-0.444,5.291-0.444,7.994c0,39.736,32.213,71.948,71.948,71.948s71.948-32.213,71.948-71.948
	c0-2.726-0.157-5.415-0.452-8.062C400.701,198.577,384.687,192.963,370.459,182.292z"/>
<path style="fill:#FFC477;" d="M415.432,199.172c-14.731-0.595-30.746-6.21-44.974-16.88c-2.54-1.904-4.935-3.912-7.194-5.999
	c-6.167,4.006-12.632,7.519-19.329,10.518v92.371c39.736,0,71.948-32.213,71.948-71.948
	C415.884,204.509,415.727,201.82,415.432,199.172z"/>
<circle cx="306.298" cy="217.567" r="10.326"/>
<circle cx="381.574" cy="217.567" r="10.326"/>
<path style="fill:#F072AE;" d="M343.936,263.195c13.245,0,23.983-10.738,23.983-23.983h-47.965
	C319.953,252.457,330.691,263.195,343.936,263.195z"/>
<path style="fill:#ED539D;" d="M343.936,239.212v23.983c13.245,0,23.983-10.738,23.983-23.983H343.936z"/>
<rect x="89.043" y="332.01" style="fill:#ACABB1;" width="333.913" height="66.783"/>
<rect x="256" y="332.01" style="fill:#898890;" width="166.957" height="66.783"/>
<rect x="66.783" y="320.879" style="fill:#C6C5CA;" width="378.435" height="22.261"/>
<rect x="256" y="320.879" style="fill:#ACABB1;" width="189.217" height="22.261"/>
<polygon style="fill:#FFFFFF;" points="77.913,131.659 77.913,242.963 155.826,242.963 189.217,276.354 189.217,242.963 
	222.609,242.963 222.609,131.659 "/>
<g>
	<rect x="100.174" y="165.053" style="fill:#C6C5CA;" width="100.174" height="11.13"/>
	<rect x="100.174" y="198.445" style="fill:#C6C5CA;" width="100.174" height="11.13"/>
</g>
<g>
</g>
<g>
</g>
<g>
</g>
<g>
</g>
<g>
</g>
<g>
</g>
<g>
</g>
<g>
</g>
<g>
</g>
<g>
</g>
<g>
</g>
<g>
</g>
<g>
</g>
<g>
</g>
<g>
</g>
</svg>
