<?xml version="1.0" encoding="iso-8859-1"?>
<!-- Generator: Adobe Illustrator 19.0.0, SVG Export Plug-In . SVG Version: 6.00 Build 0)  -->
<svg version="1.1" id="Capa_1" xmlns="http://www.w3.org/2000/svg" xmlns:xlink="http://www.w3.org/1999/xlink" x="0px" y="0px"
	 viewBox="0 0 512 512" style="enable-background:new 0 0 512 512;" xml:space="preserve">
<circle style="fill:#7BAA80;" cx="256" cy="256" r="256"/>
<path style="fill:#9C7342;" d="M249.211,417.393H119.267c-3.75,0-6.789-3.04-6.789-6.789V291.311c0-3.75,3.04-6.789,6.789-6.789
	H249.21c3.75,0,6.789,3.04,6.789,6.789v119.292C256,414.353,252.96,417.393,249.211,417.393z"/>
<path style="fill:#B28757;" d="M392.733,311.49H262.79c-3.75,0-6.79,3.04-6.79,6.79v92.324c0,3.75,3.04,6.79,6.79,6.79h129.943
	c3.75,0,6.79-3.04,6.79-6.79V318.28C399.522,314.53,396.482,311.49,392.733,311.49z"/>
<path style="fill:#9C7342;" d="M262.789,228.433h129.943c3.75,0,6.789-3.04,6.789-6.789V102.352c0-3.75-3.04-6.789-6.789-6.789
	H262.789c-3.75,0-6.789,3.04-6.789,6.789v119.292C256,225.394,259.04,228.433,262.789,228.433z"/>
<path style="fill:#B28757;" d="M119.267,122.531H249.21c3.75,0,6.79,3.04,6.79,6.79v92.324c0,3.75-3.04,6.79-6.79,6.79H119.267
	c-3.75,0-6.79-3.04-6.79-6.79V129.32C112.478,125.57,115.518,122.531,119.267,122.531z"/>
<path style="fill:#8E6130;" d="M141.583,410.603V291.311c0-3.75,3.04-6.789,6.789-6.789h-29.105c-3.75,0-6.789,3.04-6.789,6.789
	v119.292c0,3.75,3.04,6.789,6.789,6.789h29.105C144.623,417.393,141.583,414.353,141.583,410.603z"/>
<path style="fill:#9C7342;" d="M285.105,410.603v-92.324c0-3.75,3.04-6.79,6.79-6.79H262.79c-3.75,0-6.79,3.04-6.79,6.79v92.324
	c0,3.75,3.04,6.79,6.79,6.79h29.105C288.145,417.393,285.105,414.353,285.105,410.603z"/>
<path style="fill:#8E6130;" d="M285.105,221.644V102.352c0-3.75,3.04-6.789,6.789-6.789h-29.105c-3.75,0-6.789,3.04-6.789,6.789
	v119.292c0,3.75,3.04,6.789,6.789,6.789h29.105C288.145,228.433,285.105,225.394,285.105,221.644z"/>
<path style="fill:#9C7342;" d="M141.583,221.644V129.32c0-3.75,3.04-6.79,6.79-6.79h-29.105c-3.75,0-6.79,3.04-6.79,6.79v92.324
	c0,3.75,3.04,6.79,6.79,6.79h29.105C144.623,228.433,141.583,225.394,141.583,221.644z"/>
<g>
	<rect x="81.24" y="228.43" style="fill:#D3CFC7;" width="349.87" height="28.758"/>
	<path style="fill:#D3CFC7;" d="M81.242,443.048c1.115,1.042,2.234,2.08,3.367,3.102H427.39c1.255-1.132,2.494-2.281,3.727-3.437
		v-25.321H81.242V443.048z"/>
</g>
<g>
	<path style="fill:#FDD054;" d="M167.406,284.522v50.969c0,1.639,1.329,2.968,2.968,2.968h27.492c1.771,0,3.207-1.436,3.207-3.207
		v-50.73L167.406,284.522L167.406,284.522z"/>
	<path style="fill:#FDD054;" d="M310.928,311.49v50.969c0,1.639,1.329,2.968,2.968,2.968h27.492c1.771,0,3.207-1.436,3.207-3.207
		v-50.73L310.928,311.49L310.928,311.49z"/>
	<path style="fill:#FDD054;" d="M344.594,95.562v50.969c0,1.639-1.329,2.968-2.968,2.968h-27.492c-1.771,0-3.207-1.436-3.207-3.207
		v-50.73L344.594,95.562L344.594,95.562z"/>
	<path style="fill:#FDD054;" d="M201.072,122.531V173.5c0,1.639-1.329,2.968-2.968,2.968h-27.492c-1.771,0-3.207-1.436-3.207-3.207
		v-50.73C167.405,122.531,201.072,122.531,201.072,122.531z"/>
</g>
<g>
	<path style="fill:#F9B546;" d="M184.239,335.49v-50.969h-16.833v50.969c0,1.639,1.329,2.968,2.968,2.968h16.833
		C185.568,338.458,184.239,337.129,184.239,335.49z"/>
	<path style="fill:#F9B546;" d="M327.762,362.458V311.49h-16.833v50.969c0,1.639,1.329,2.968,2.968,2.968h16.833
		C329.091,365.427,327.762,364.098,327.762,362.458z"/>
	<path style="fill:#F9B546;" d="M327.761,146.292v-50.73h-16.833v50.73c0,1.771,1.436,3.207,3.207,3.207h16.833
		C329.196,149.499,327.761,148.063,327.761,146.292z"/>
	<path style="fill:#F9B546;" d="M184.238,173.26v-50.73h-16.833v50.73c0,1.771,1.436,3.207,3.207,3.207h16.833
		C185.674,176.467,184.238,175.031,184.238,173.26z"/>
</g>
<rect x="81.24" y="39.474" style="fill:#D3CFC7;" width="349.87" height="28.758"/>
<g>
	<path style="fill:#BCB8AF;" d="M112.888,242.812c0-7.941,6.438-14.379,14.379-14.379H81.242v28.758h46.024
		C119.325,257.191,112.888,250.754,112.888,242.812z"/>
	<path style="fill:#BCB8AF;" d="M127.267,417.393H81.242v25.656c1.115,1.042,2.234,2.08,3.367,3.102h42.657
		c-7.941,0-14.379-6.438-14.379-14.379l0,0C112.888,423.83,119.325,417.393,127.267,417.393z"/>
	<path style="fill:#BCB8AF;" d="M112.888,53.853c0-7.941,6.438-14.379,14.379-14.379H81.242v28.758h46.024
		C119.325,68.232,112.888,61.794,112.888,53.853z"/>
</g>
<g>
	<path style="fill:#EFECDC;" d="M450.911,20.237h-15.694c-3.639,0-6.589,2.95-6.589,6.589v418.205
		c10.409-9.511,20.035-19.865,28.758-30.964V26.712C457.385,23.136,454.487,20.237,450.911,20.237z"/>
	<path style="fill:#EFECDC;" d="M76.435,20.237H62.498c-4.354,0-7.884,3.53-7.884,7.884v385.947
		c8.723,11.098,18.349,21.453,28.758,30.964V27.174C83.372,23.343,80.267,20.237,76.435,20.237z"/>
</g>
<path style="fill:#675991;" d="M126.282,476.728C164.324,499.133,208.656,512,256,512s91.676-12.867,129.718-35.272H126.282z"/>
<path style="fill:#534784;" d="M236.851,476.728H126.282c32.6,19.2,69.821,31.386,109.596,34.483
	C222.695,504.165,223.305,483.132,236.851,476.728z"/>
<g>
</g>
<g>
</g>
<g>
</g>
<g>
</g>
<g>
</g>
<g>
</g>
<g>
</g>
<g>
</g>
<g>
</g>
<g>
</g>
<g>
</g>
<g>
</g>
<g>
</g>
<g>
</g>
<g>
</g>
</svg>
