<svg xmlns="http://www.w3.org/2000/svg" xmlns:xlink="http://www.w3.org/1999/xlink" viewBox="0 0 173.81 50.21"><defs><style>.cls-1,.cls-2{fill:none;}.cls-2{clip-rule:evenodd;}.cls-3{fill:#231f20;}.cls-4{clip-path:url(#clip-path);}.cls-5{fill:url(#linear-gradient);}.cls-6{clip-path:url(#clip-path-2);}.cls-7{fill:url(#linear-gradient-2);}.cls-8{clip-path:url(#clip-path-3);}.cls-9{fill:url(#linear-gradient-3);}.cls-10{clip-path:url(#clip-path-4);}.cls-11{fill:url(#linear-gradient-4);}.cls-12{clip-path:url(#clip-path-5);}.cls-13{fill:url(#linear-gradient-5);}.cls-14{clip-path:url(#clip-path-6);}.cls-15{fill:url(#linear-gradient-6);}.cls-16{clip-path:url(#clip-path-7);}.cls-17{fill:url(#linear-gradient-7);}.cls-18{clip-path:url(#clip-path-8);}.cls-19{fill:url(#linear-gradient-8);}.cls-20{clip-path:url(#clip-path-9);}.cls-21{fill:url(#linear-gradient-9);}.cls-22{clip-path:url(#clip-path-10);}.cls-23{fill:url(#linear-gradient-11);}</style><clipPath id="clip-path" transform="translate(0 0.04)"><path class="cls-1" d="M20.91,10.77A3.8,3.8,0,0,0,17.36,9a1.15,1.15,0,0,1,0-2.29,6.54,6.54,0,0,1,3.55,1V2.42A21.46,21.46,0,0,0,15.1,4.08a1,1,0,0,1-.22.14,5.43,5.43,0,0,0-2.29,2,5.21,5.21,0,0,0-.84,2.86,5.46,5.46,0,0,0,1.6,3.82,5.38,5.38,0,0,0,3.81,1.59,1.15,1.15,0,1,1,0,2.29,7.64,7.64,0,0,1-5.42-2.26,5.32,5.32,0,0,1-.55-.61,8.64,8.64,0,0,0-4.21,3,1.14,1.14,0,0,1-1.89-1.29A10.77,10.77,0,0,1,10,11.92a7.68,7.68,0,0,1-.55-2.84,8,8,0,0,1,.14-1.47A21.6,21.6,0,0,0,8,38.46a2.73,2.73,0,0,0,.23.25,7.63,7.63,0,0,1,.69-4,9.09,9.09,0,0,1,.47-.87,10.68,10.68,0,0,1-2.47-5.17,1.14,1.14,0,0,1,2.26-.35,8.07,8.07,0,0,0,1.72,3.78,7.58,7.58,0,0,1,2.36-1.37,1.14,1.14,0,1,1,.78,2.14,5.42,5.42,0,0,0-3.23,6.94,5.36,5.36,0,0,0,.65,1.26,5.22,5.22,0,0,0,.89,1,21.43,21.43,0,0,0,8.55,3.13v-3.9a8.71,8.71,0,0,1-3.79-.86A7.58,7.58,0,0,1,13.67,37a1.13,1.13,0,0,1,.51-1.53,1.15,1.15,0,0,1,1.53.51,5.32,5.32,0,0,0,2.43,2.44,6.27,6.27,0,0,0,2.77.63V29.13c-2.64-2.36-5-1-5-1a1.14,1.14,0,1,1-1.11-2,6.4,6.4,0,0,1,6.08.2V20.94c-2.52-.36-3.81.77-5.18,1.95l-.36.3a.92.92,0,0,1-.35.3C12.79,25.35,10.08,27,3.69,24.91a1.14,1.14,0,1,1,.7-2.18c4.73,1.52,7,.65,8.7-.62a6.71,6.71,0,0,0-3.16-3,1.15,1.15,0,0,1,1-2.07,9.11,9.11,0,0,1,3.95,3.57,7.14,7.14,0,0,1,6.05-2Zm1,36.86A23.89,23.89,0,0,1,22,0,1.14,1.14,0,0,1,23.2,1.06v.09h0V46.49a1.15,1.15,0,0,1-1.14,1.15Z"/></clipPath><linearGradient id="linear-gradient" x1="11.6" y1="53.62" x2="11.6" y2="-5.59" gradientUnits="userSpaceOnUse"><stop offset="0" stop-color="#5d4ea1"/><stop offset="1" stop-color="#a85da5"/></linearGradient><clipPath id="clip-path-2" transform="translate(0 0.04)"><path class="cls-1" d="M41.48,9.16A21.51,21.51,0,0,0,28.53,2.42v42.8A21.6,21.6,0,0,0,41.48,9.16M27.54,0a23.89,23.89,0,0,1-.07,47.63,1.15,1.15,0,0,1-1.22-1.06V46.5h0V1.14A1.15,1.15,0,0,1,27.39,0Z"/></clipPath><linearGradient id="linear-gradient-2" x1="37.87" y1="53.62" x2="37.87" y2="-5.59" xlink:href="#linear-gradient"/><clipPath id="clip-path-3" transform="translate(0 0.04)"><path class="cls-1" d="M27.27,8.84a1.15,1.15,0,0,1-1-1.26,1.14,1.14,0,0,1,1.26-1,17.36,17.36,0,0,1,0,34.51,1.15,1.15,0,1,1-.24-2.28,15.07,15.07,0,0,0,0-30"/></clipPath><linearGradient id="linear-gradient-3" x1="34.58" y1="53.62" x2="34.58" y2="-5.59" xlink:href="#linear-gradient"/><clipPath id="clip-path-4" transform="translate(0 0.04)"><path class="cls-1" d="M27.18,15.42a1.14,1.14,0,0,1,.41-2.25,10.84,10.84,0,0,1,0,21.3,1.14,1.14,0,0,1-.41-2.25,8.54,8.54,0,0,0,0-16.8"/></clipPath><linearGradient id="linear-gradient-4" x1="31.3" y1="53.62" x2="31.3" y2="-5.59" xlink:href="#linear-gradient"/><clipPath id="clip-path-5" transform="translate(0 0.04)"><path class="cls-2" d="M40.53,14.88A2.57,2.57,0,1,1,38,17.45a2.57,2.57,0,0,1,2.57-2.57"/></clipPath><linearGradient id="linear-gradient-5" x1="40.53" y1="53.62" x2="40.53" y2="-5.59" xlink:href="#linear-gradient"/><clipPath id="clip-path-6" transform="translate(0 0.04)"><path class="cls-2" d="M33.06,27.44A2.57,2.57,0,1,1,30.49,30a2.57,2.57,0,0,1,2.57-2.57"/></clipPath><linearGradient id="linear-gradient-6" x1="33.06" y1="53.62" x2="33.06" y2="-5.59" xlink:href="#linear-gradient"/><clipPath id="clip-path-7" transform="translate(0 0.04)"><path class="cls-2" d="M41.38,37.63a2.58,2.58,0,1,1-2.57,2.58,2.58,2.58,0,0,1,2.57-2.58"/></clipPath><linearGradient id="linear-gradient-7" x1="41.38" y1="53.62" x2="41.38" y2="-5.59" xlink:href="#linear-gradient"/><clipPath id="clip-path-8" transform="translate(0 0.04)"><path class="cls-2" d="M34,.11a2.57,2.57,0,1,1-2.57,2.57A2.57,2.57,0,0,1,34,.11"/></clipPath><linearGradient id="linear-gradient-8" x1="34.01" y1="53.62" x2="34.01" y2="-5.59" xlink:href="#linear-gradient"/><clipPath id="clip-path-9" transform="translate(0 0.04)"><path class="cls-2" d="M27.39,11.72a2.58,2.58,0,1,1-2.57,2.57,2.57,2.57,0,0,1,2.57-2.57"/></clipPath><linearGradient id="linear-gradient-9" x1="27.39" y1="53.62" x2="27.39" y2="-5.59" xlink:href="#linear-gradient"/><clipPath id="clip-path-10" transform="translate(0 0.04)"><path class="cls-2" d="M27.39,37.15a2.57,2.57,0,1,1-2.57,2.57,2.57,2.57,0,0,1,2.57-2.57"/></clipPath><linearGradient id="linear-gradient-11" x1="49.52" y1="42.71" x2="61.33" y2="42.71" xlink:href="#linear-gradient"/></defs><title>btn-logo</title><g id="Layer_2" data-name="Layer 2"><g id="Layer_1-2" data-name="Layer 1"><path class="cls-3" d="M92.63,28.09H76.18V38.56H95.61v8.13H65.72V2.88h30V11H76.18v9.23H92.63Z" transform="translate(0 0.04)"/><path class="cls-3" d="M116,31.19h-5.66v15.5H99.87V2.88h17.07q7.71,0,12.06,3.46t4.35,9.77a14.34,14.34,0,0,1-1.83,7.57,13,13,0,0,1-5.73,4.87l9,17.68v.46h-11.2Zm-5.66-8.12h6.62a5.92,5.92,0,0,0,4.48-1.58,6.18,6.18,0,0,0,1.51-4.42,6.24,6.24,0,0,0-1.52-4.45A5.85,5.85,0,0,0,116.94,11h-6.62Z" transform="translate(0 0.04)"/><path class="cls-3" d="M150.13,31.82V46.69H139.67V2.88H157a20,20,0,0,1,8.8,1.85A13.9,13.9,0,0,1,171.71,10a14.47,14.47,0,0,1,2.1,7.74A12.76,12.76,0,0,1,169.27,28q-4.54,3.84-12.47,3.83Zm0-8.15H157a6.43,6.43,0,0,0,4.63-1.53,5.76,5.76,0,0,0,1.59-4.34,7.09,7.09,0,0,0-1.63-4.9A5.81,5.81,0,0,0,157.1,11h-7Z" transform="translate(0 0.04)"/><g class="cls-4"><rect class="cls-5" width="23.2" height="47.68"/></g><g class="cls-6"><rect class="cls-7" x="26.24" y="0.04" width="23.25" height="47.68"/></g><g class="cls-8"><rect class="cls-9" x="26.19" y="6.54" width="16.78" height="34.64"/></g><g class="cls-10"><rect class="cls-11" x="26.15" y="13.1" width="10.29" height="21.52"/></g><g class="cls-12"><rect class="cls-13" x="37.96" y="14.92" width="5.14" height="5.14"/></g><g class="cls-14"><rect class="cls-15" x="30.49" y="27.48" width="5.14" height="5.14"/></g><g class="cls-16"><rect class="cls-17" x="38.81" y="37.67" width="5.14" height="5.14"/></g><g class="cls-18"><rect class="cls-19" x="31.44" y="0.15" width="5.14" height="5.14"/></g><g class="cls-20"><rect class="cls-21" x="24.82" y="11.76" width="5.14" height="5.14"/></g><g class="cls-22"><rect class="cls-21" x="24.82" y="37.19" width="5.14" height="5.14"/></g><path class="cls-23" d="M61.33,45.35c0,2.84-2.34,4.82-6,4.82a10.05,10.05,0,0,1-5.81-1.81l1.56-3a5.52,5.52,0,0,0,4,1.83c1.62,0,2.52-.67,2.52-1.83S56.66,43.6,55,43.6H52.53V41.54L56,38.23H50.3l0-3H60.59v2.23l-4,3.71.73.1C59.69,41.66,61.33,43.09,61.33,45.35Z" transform="translate(0 0.04)"/></g></g></svg>