<svg id="Layer_1" enable-background="new 0 0 512 512" height="512" viewBox="0 0 512 512" width="512" xmlns="http://www.w3.org/2000/svg"><g><ellipse cx="256" cy="266.999" fill="#ffc364" rx="245.001" ry="245.001" transform="matrix(.707 -.707 .707 .707 -113.816 259.222)"/><path d="m80.38 160.663-43.53 34.395c1.569-.724 3.307-1.14 5.141-1.14h38.389z" fill="#d82f1d"/><path d="m431.62 160.663v33.255h38.389c1.834 0 3.572.416 5.141 1.14z" fill="#e84126"/><path d="m431.62 245.351 50.751-40.101c0-6.799-5.563-12.362-12.362-12.362h-38.389z" fill="#510e3c"/><path d="m80.38 192.887h-38.389c-6.799 0-12.362 5.563-12.362 12.362l50.751 40.101z" fill="#510e3c"/><path d="m417.075 223.749h-322.15c-10.099 0-18.285-8.187-18.285-18.286v36.932l60.78 48.025h237.162l60.78-48.025v-36.932c-.002 10.098-8.188 18.286-18.287 18.286z" fill="#3ece5d"/><path d="m76.639 205.463v36.932l60.78 48.025h144.397c.477-1.933.096-4.027-1.165-5.714-5.23-7-2.381-13.787.516-17.913 1.73-2.464 1.728-5.775-.137-8.138-10.499-13.298-5.145-23.387-.534-28.555 1.565-1.754 2.049-4.176 1.417-6.351h-186.988c-10.099 0-18.286-8.188-18.286-18.286z" fill="#2fad4f"/><path d="m106.209 223.748c1.495 2.395 3.994 4.128 6.963 4.635 13.007 2.217 23.284 12.525 25.502 25.501.829 4.851 4.919 8.462 9.84 8.462h214.972c4.919 0 9.012-3.608 9.838-8.457 2.216-13.009 12.526-23.283 25.501-25.502 2.971-.508 5.472-2.242 6.967-4.638h-299.583z" fill="#54ea71"/><path d="m113.172 228.383c13.007 2.217 23.284 12.525 25.502 25.501.829 4.851 4.919 8.462 9.84 8.462h133.902c-.082-1.314-.527-2.603-1.386-3.69-10.499-13.298-5.145-23.387-.534-28.555 1.565-1.754 2.049-4.176 1.417-6.351h-175.704c1.496 2.393 3.994 4.127 6.963 4.633z" fill="#3ece5d"/><path d="m134.787 288.341 82.432 65.133 18.545-14.653c12.023-8.899 28.449-8.899 40.472 0l18.545 14.653 82.432-65.133z" fill="#3ece5d"/><path d="m217.219 353.474 18.545-14.653c12.023-8.899 28.449-8.899 40.472 0l5.732 4.529.01-3.999c.002-.93-.215-1.841-.555-2.706-.877-2.232-.468-4.227.302-5.792 1.205-2.448.963-5.326-.716-7.477-10.473-13.417-4.972-24.635-.416-30.413 1.069-1.356 1.517-3.002 1.401-4.624h-147.207z" fill="#2fad4f"/><path d="m183.635 326.937h144.73l48.848-38.596h-242.426z" fill="#54ea71"/><path d="m183.634 326.937h98.803c-.13-1.271-.604-2.503-1.429-3.56-10.473-13.417-4.972-24.635-.416-30.413 1.069-1.356 1.517-3.002 1.401-4.624h-147.206z" fill="#3ece5d"/><path d="m417.075 0h-322.15c-10.099 0-18.286 8.187-18.286 18.285v189.257c0 10.099 8.187 18.286 18.285 18.286h322.15c10.099 0 18.285-8.187 18.285-18.286v-189.257c.001-10.098-8.185-18.285-18.284-18.285z" fill="#3ece5d"/><path d="m76.639 18.285v189.257c0 10.099 8.187 18.286 18.285 18.286h187.246c.04-1.422-.354-2.859-1.216-4.077-5.989-8.456-3.668-14.987-.691-18.963 1.889-2.523 1.753-6.089-.354-8.434-5.643-6.28-4.396-13.573-2.747-18.04.843-2.284.216-4.783-1.371-6.629-2.179-2.532-1.826-5.554-1.1-7.712.68-2.022.427-4.238-.75-6.018l-15.85-23.971c-1.867-2.823-1.382-6.573 1.128-8.844 4.5-4.072 10.684-11.429 10.707-21.125.035-14.421-20.728-26.306-22.984-27.554-.128-.071-.255-.133-.388-.193-7.688-3.485-8.388-10.061-7.9-14.333.278-2.432-.809-4.839-2.78-6.292-9.086-6.697-6.816-16.389-4.63-21.611.962-2.298.53-4.92-.975-6.905-6.008-7.924-4.417-14.729-1.83-19.201 1.09-1.884 1.139-4.064.364-5.926h-133.878c-10.099 0-18.286 8.186-18.286 18.285z" fill="#2fad4f"/><path d="m398.828 62.037c-13.007-2.217-23.283-12.524-25.501-25.501-.829-4.85-4.919-8.461-9.839-8.461h-214.973c-4.919 0-9.012 3.608-9.838 8.457-2.217 13.007-12.525 23.283-25.501 25.502-4.85.829-8.461 4.919-8.461 9.839v82.08c0 4.919 3.608 9.012 8.457 9.838 13.007 2.217 23.284 12.525 25.502 25.501.829 4.851 4.919 8.462 9.84 8.462h214.972c4.919 0 9.012-3.608 9.838-8.457 2.216-13.009 12.526-23.283 25.501-25.501 4.85-.83 8.461-4.919 8.461-9.84v-82.08c-.001-4.92-3.609-9.012-8.458-9.839z" fill="#54ea71"/><path d="m138.676 36.532c-2.217 13.007-12.524 23.283-25.501 25.502-4.85.829-8.461 4.919-8.461 9.839v82.08c0 4.919 3.608 9.012 8.457 9.838 13.007 2.217 23.284 12.525 25.502 25.501.829 4.851 4.919 8.462 9.84 8.462h132.978c-.191-1.235-.705-2.424-1.581-3.399-5.643-6.28-4.396-13.573-2.747-18.04.843-2.284.216-4.783-1.371-6.629-2.179-2.532-1.826-5.554-1.1-7.712.68-2.022.427-4.238-.75-6.018l-15.85-23.971c-1.867-2.823-1.382-6.573 1.128-8.844 4.5-4.072 10.684-11.429 10.707-21.125.035-14.421-20.728-26.306-22.984-27.554-.128-.071-.255-.133-.388-.193-7.688-3.485-8.388-10.061-7.9-14.333.278-2.432-.809-4.839-2.78-6.292-9.086-6.697-6.816-16.389-4.63-21.611.534-1.274.624-2.646.355-3.957h-83.084c-4.92-.001-9.013 3.607-9.84 8.456z" fill="#3ece5d"/><circle cx="256" cy="112.914" fill="#3ece5d" r="61.442"/><path d="m274.691 161.973c.68-2.022.427-4.238-.75-6.018l-15.85-23.971c-1.867-2.823-1.382-6.573 1.128-8.844 4.5-4.072 10.684-11.429 10.707-21.125.035-14.421-20.728-26.306-22.984-27.554-.128-.071-.255-.133-.388-.193-7.688-3.485-8.388-10.061-7.9-14.333.227-1.99-.471-3.954-1.807-5.401-24.552 8.05-42.289 31.138-42.289 58.381 0 33.934 27.509 61.442 61.442 61.442 7.22 0 14.144-1.255 20.579-3.543-.229-.394-.485-.776-.788-1.128-2.179-2.533-1.826-5.555-1.1-7.713z" fill="#2fad4f"/><path d="m280.446 93.982h-3.994c-.455-1.562-1.041-3.067-1.751-4.503h5.745c4.268 0 7.726-3.459 7.726-7.726s-3.459-7.726-7.726-7.726c-15.625 0-40.061 0-48.891 0-4.268 0-7.726 3.459-7.726 7.726s3.459 7.726 7.726 7.726h18.321c3.815 0 7.225 1.757 9.469 4.503h-27.79c-4.268 0-7.726 3.459-7.726 7.726s3.459 7.726 7.726 7.726h27.79c-2.245 2.745-5.654 4.503-9.469 4.503h-16.4c-3.478 0-6.57 2.081-7.88 5.304-1.31 3.221-.546 6.871 1.946 9.298.643.626-1.472-1.073 37.614 28.674 3.396 2.583 8.245 1.923 10.827-1.473 2.583-3.397 1.924-8.244-1.473-10.827l-20.768-15.792c10.858-1.524 19.713-9.372 22.716-19.687h3.989c4.268 0 7.726-3.459 7.726-7.726s-3.459-7.726-7.727-7.726z" fill="#d0e8fe"/><path d="m482.371 205.249c0-2.712-.896-5.219-2.392-7.264l-185.198 155.489 123.185 97.335c27.793-24.51 49.983-55.218 64.405-89.971z" fill="#f94a38"/><path d="m29.629 205.249v155.588c14.422 34.752 36.612 65.461 64.405 89.971l123.185-97.335-185.198-155.487c-1.496 2.044-2.392 4.551-2.392 7.263z" fill="#d82f1d"/><path d="m276.236 336.76c-12.023-8.899-28.449-8.899-40.472 0l-142.958 112.959c43.33 38.726 100.507 62.281 163.194 62.281s119.864-23.555 163.194-62.281z" fill="#ff645c"/><path d="m304.558 507.169c-55.391-24.576-53.67-87.524-53.67-124.288 0-39.5 31.086-41.588 31.086-41.588l-5.737-4.534c-12.023-8.899-28.449-8.899-40.472 0l-142.959 112.96c43.33 38.726 100.507 62.281 163.194 62.281 16.627 0 32.862-1.673 48.558-4.831z" fill="#f94a38"/></g></svg>