<svg id="Capa_1" enable-background="new 0 0 512 512" height="512" viewBox="0 0 512 512" width="512" xmlns="http://www.w3.org/2000/svg"><g><g><g><g><g><g><g><g><g><g><g><g><circle cx="256" cy="256" fill="#fe6a16" r="256"/></g></g></g></g></g></g></g></g></g></g></g><path d="m512 256c0-10.701-.655-21.249-1.93-31.604l-125.018-125.016-138.496 138.495 33.029 33.029-90.061 40.357-115.717 124.577c46.417 47.02 110.902 76.162 182.193 76.162 141.385 0 256-114.615 256-256z" fill="#f24500"/><g><circle cx="314.176" cy="167" fill="#fdba12" r="97.959"/></g><g><path d="m412.135 167c0-54.077-43.818-97.918-97.885-97.958v195.916c54.067-.04 97.885-43.881 97.885-97.958z" fill="#ffa300"/></g><g><g><path d="m100.951 459.7 80.049-105.7 77.859 12.683c27.118 5.026 55.062-2.329 76.193-20.054l78.086-56.222c6.914-5.799 7.725-16.142 1.799-22.948-5.402-7.381-13.827-6.837-20.282-3.356l-66.77 36.016c-7.533 4.063-16.218 5.46-24.645 3.962l-71.571-6.934 51.707-.377c8.741.499 16.941-4.993 19.192-13.453.597-2.245.785-4.631.49-7.058-1.28-10.548-11.121-17.829-21.667-16.03l-60.439-.17c-21.063-.059-41.783 5.612-59.74 16.62-12.962 7.946-125.408 109.974-125.408 109.974 16.854 28.348 39.031 53.139 65.147 73.047z" fill="#ffbeaa"/></g></g><g><g fill="#faa68e"><path d="m283.375 296.772c8.741.499 16.941-4.993 19.192-13.454.597-2.245.785-4.631.49-7.058-1.28-10.548-11.121-17.829-21.667-16.03l-25.724-.072v36.816z"/><path d="m414.937 267.459c-5.402-7.38-13.827-6.837-20.282-3.355l-66.77 36.016c-7.533 4.063-16.218 5.459-24.645 3.962l-47.573-4.609v66.689l3.192.52c27.118 5.025 55.062-2.33 76.193-20.054l78.086-56.222c6.913-5.798 7.724-16.141 1.799-22.947z"/></g></g><path d="m34.763 384.882c22.4 38.366 54.503 70.391 92.934 92.694l45.36-42.576-67.12-113.942z" fill="#966857"/><g><circle cx="314.176" cy="167" fill="#ffa300" r="67.62"/></g><g><path d="m381.797 167c0-37.321-30.235-67.579-67.547-67.619v135.237c37.312-.039 67.547-30.297 67.547-67.618z" fill="#fe8205"/></g><path d="m355 135.5v-14h-30.5-42v14h42c3.353 0 6.306 2.194 7.997 5.5h-49.997v14h49.344c-1.744 2.668-4.388 4.373-7.344 4.373h-33c-2.816 0-5.357 1.688-6.451 4.283-1.093 2.595-.524 5.592 1.442 7.607l46.5 47.627 10.018-9.78-34.892-35.737h16.383c10.575 0 19.54-7.75 22.48-18.373h8.02v-14h-7.732c-.448-1.929-1.092-3.771-1.908-5.5z" fill="#fff"/><g fill="#e9edf5"><path d="m332.991 218.89 10.018-9.78-28.759-29.456v20.04z"/><path d="m355 121.5h-30.5-10.25v14h10.25c3.353 0 6.306 2.194 7.997 5.5h-18.247v14h17.594c-1.744 2.668-4.388 4.373-7.344 4.373h-10.25v14h10.25c10.575 0 19.54-7.75 22.48-18.373h8.02v-14h-7.732c-.448-1.929-1.092-3.771-1.908-5.5h9.64z"/></g></g></svg>